REM DIRINDEX 1\2,1\3
REM DIRNAME folder01,folder02,folder03
TITLE ""
FILE "Disk1Track65.mp3" MP3
  TRACK 01 AUDIO
    TITLE "2:cjc052_0444"
    INDEX 01 00:00:00
  TRACK 02 AUDIO
    TITLE "2:cjc052_0445"
    INDEX 01 00:08:66
  TRACK 03 AUDIO
    TITLE "2:cjc052_0446"
    INDEX 01 00:16:69
  TRACK 04 AUDIO
    TITLE "0:"
    INDEX 01 00:28:37
